<?xml version="1.0" encoding="utf-8"?>
<!-- Generator: Adobe Illustrator 17.1.0, SVG Export Plug-In . SVG Version: 6.00 Build 0)  -->
<!DOCTYPE svg PUBLIC "-//W3C//DTD SVG 1.1//EN" "http://www.w3.org/Graphics/SVG/1.1/DTD/svg11.dtd">
<svg version="1.1" id="Layer_1" xmlns="http://www.w3.org/2000/svg" xmlns:xlink="http://www.w3.org/1999/xlink" x="0px" y="0px"
	 viewBox="0 0 693 249" enable-background="new 0 0 693 249" xml:space="preserve">
<path fill-rule="evenodd" clip-rule="evenodd" d="M10.5,197.5c3.7-0.1,7.3-0.2,10.8-0.2c19.3,0,26.8,4.7,26.8,17.8
	c0,7.5-3.1,14.3-12.4,17.6c-7,2.5-17.6,1.8-25.2,1.5V197.5L10.5,197.5z M2.9,236.9h16.8c9.1,0,18.7-0.1,26-4.7
	c6.5-4.1,10.8-9.6,10.8-18.1c0-5.8-2.8-11.6-9.2-15.4c-7.2-4.3-15.9-3.7-24.9-3.7H2.9V236.9L2.9,236.9z"/>
<path d="M189.8,197.9h6.6l8.6,0.1c2.6,0.1,5.2,0.3,7.7,0.7c-0.1-0.6-0.3-1.2-0.3-1.8c0-0.6,0.2-1.2,0.3-1.8h-30.5v41.9h31.1
	c-0.1-0.6-0.3-1.2-0.3-1.8c0-0.6,0.2-1.2,0.3-1.8c-2.7,0.3-5.2,0.5-7.9,0.6c-5.2,0.1-10.3,0.4-15.6,0.2V216h13.3
	c2.6,0,5.1,0.2,7.7,0.3c-0.1-0.7-0.3-1.2-0.3-1.7c0-0.6,0.2-1.1,0.3-1.6c-2.6,0.1-5.1,0.3-7.7,0.3h-13.3V197.9L189.8,197.9z"/>
<path d="M345.9,195c-1.4,0.1-2.6,0.2-3.8,0.2c-1.3,0-2.6-0.1-3.8-0.2v41.9h31.3c-0.1-0.6-0.3-1.2-0.3-1.8c0-0.6,0.2-1.2,0.3-1.8
	c-2.8,0.2-5.4,0.5-8.2,0.6c-5.2,0.1-10.3,0.4-15.6,0.2V195L345.9,195z"/>
<path d="M507,198c7.7,0,13.7,0.4,18,0.7c-0.1-0.6-0.3-1.2-0.3-1.8c0-0.6,0.2-1.2,0.3-1.8h-44.4c0.1,0.7,0.3,1.2,0.3,1.8
	c0,0.6-0.2,1.2-0.3,1.8c4.9-0.4,10.2-0.7,18.8-0.7v39.2c1.2-0.1,2.5-0.2,3.8-0.2c1.2,0,2.4,0.1,3.8,0.2V198L507,198z"/>
<path fill-rule="evenodd" clip-rule="evenodd" d="M663.7,194.1h-2l-26.8,43c0.9-0.1,1.9-0.2,3-0.2c1,0,2,0.1,3.2,0.2
	c2.4-5.8,5.5-11.2,8.5-16.6h21.9c3.4,5.6,6.5,11.5,9,16.6c1.5-0.1,2.9-0.2,4.6-0.2c1.5,0,2.8,0.1,4.5,0.2L663.7,194.1L663.7,194.1z
	 M670.1,217.9h-18.9l9.4-15.7L670.1,217.9L670.1,217.9z"/>
<path d="M204,115.3c-37.9-2.7-67.8-29.9-67.8-44.3c0-36.4,95.1-67.3,201-67.3c105.9,0,209.3,30.9,209.3,67.3
	c0,36.4-103.5,66-209.3,66c-18.2,0-35.9-0.9-52.6-2.5c-4.1-0.4-8.1-0.9-12.1-1.3l60-97h12.8L308.7,127c9.4,0.5,18.7,1.1,28.5,1.1
	c96.1,0,167.3-26.4,167.3-57c0-30.6-71.2-60-167.3-60c-96.1,0-177.3,29.3-177.8,60C159,99.3,204,115.3,204,115.3L204,115.3z"/>
</svg>
